<svg width="25" height="25" viewBox="0 0 25 25" fill="none" xmlns="http://www.w3.org/2000/svg">
<circle cx="12.5" cy="12.5" r="12" fill="#002BC6" stroke="#7996FF"/>
<path d="M9.95791 12.8546H11.1494V17.7597C11.1494 17.8565 11.2279 17.935 11.3247 17.935H13.3449C13.4417 17.935 13.5202 17.8565 13.5202 17.7597V12.8777H14.8899C14.979 12.8777 15.0539 12.8108 15.0641 12.7224L15.2721 10.9166C15.2778 10.8669 15.2621 10.8171 15.2288 10.7798C15.1956 10.7425 15.148 10.7212 15.098 10.7212H13.5203V9.5892C13.5203 9.24797 13.704 9.07493 14.0664 9.07493C14.1181 9.07493 15.098 9.07493 15.098 9.07493C15.1948 9.07493 15.2733 8.99643 15.2733 8.89962V7.24204C15.2733 7.1452 15.1948 7.06673 15.098 7.06673H13.6764C13.6663 7.06624 13.6441 7.06543 13.6112 7.06543C13.3646 7.06543 12.5072 7.11385 11.8299 7.73692C11.0795 8.42739 11.1838 9.2541 11.2087 9.39744V10.7211H9.95791C9.86106 10.7211 9.78259 10.7996 9.78259 10.8965V12.6792C9.78259 12.7761 9.86106 12.8546 9.95791 12.8546Z" fill="#7996FF"/>
</svg>
