<svg width="26" height="25" viewBox="0 0 26 25" fill="none" xmlns="http://www.w3.org/2000/svg">
<circle cx="12.8334" cy="12.5" r="12" fill="#002BC6" stroke="#7996FF"/>
<path d="M9.67044 8.15234H16.5284C17.1799 8.15234 17.7126 8.68516 17.7126 9.3367V16.1946C17.7126 16.846 17.1799 17.3784 16.5284 17.3784H9.67044C9.01891 17.3784 8.48572 16.846 8.48572 16.1946V9.3367C8.48572 8.68516 9.01891 8.15234 9.67044 8.15234ZM15.2073 9.17704C14.9786 9.17704 14.792 9.36438 14.792 9.59302V10.5869C14.792 10.8156 14.9786 11.0025 15.2073 11.0025H16.2501C16.4785 11.0025 16.6655 10.8156 16.6655 10.5869V9.59302C16.6655 9.36438 16.4785 9.17704 16.2501 9.17704H15.2073ZM16.6694 12.0539H15.8576C15.9346 12.3054 15.9763 12.5705 15.9763 12.8462C15.9763 14.3804 14.6917 15.6247 13.1078 15.6247C11.5243 15.6247 10.2397 14.3804 10.2397 12.8462C10.2397 12.5705 10.2818 12.3054 10.3584 12.0539H9.51143V15.9517C9.51143 16.1536 9.67626 16.3178 9.87792 16.3178H16.3031C16.5049 16.3178 16.6694 16.1536 16.6694 15.9517V12.0539ZM13.1078 10.9501C12.0849 10.9501 11.2551 11.7537 11.2551 12.7459C11.2551 13.7371 12.0849 14.5413 13.1078 14.5413C14.1313 14.5413 14.9612 13.7371 14.9612 12.7459C14.9612 11.7537 14.1313 10.9501 13.1078 10.9501Z" fill="#7996FF"/>
</svg>
