<svg width="26" height="25" viewBox="0 0 26 25" fill="none" xmlns="http://www.w3.org/2000/svg">
<circle cx="13.1666" cy="12.5" r="12" fill="#002BC6" stroke="#7996FF"/>
<path d="M9.8702 8.15234C9.29002 8.15234 8.82041 8.6228 8.82031 9.20167C8.82031 9.7811 9.28992 10.2515 9.87029 10.2515C10.4491 10.2515 10.9193 9.7811 10.9193 9.20167C10.9193 8.6227 10.449 8.15234 9.8702 8.15234Z" fill="#7996FF"/>
<path d="M10.7751 11.0469H8.96472V16.8716H10.7751V11.0469Z" fill="#7996FF"/>
<path d="M15.3839 10.9014C14.5032 10.9014 13.9127 11.3842 13.671 11.8421H13.6468V11.0462H11.9105H11.9104V16.8708H13.7192V13.9894C13.7192 13.2297 13.8638 12.4939 14.8057 12.4939C15.734 12.4939 15.7464 13.3627 15.7464 14.0381V16.8707H17.5555V13.6759C17.5555 12.1077 17.2171 10.9014 15.3839 10.9014Z" fill="#7996FF"/>
</svg>
