<svg width="136" height="59" viewBox="0 0 136 59" fill="none" xmlns="http://www.w3.org/2000/svg">
<g clip-path="url(#clip0_437_552)">
<path d="M35.3674 21.9482L25.3042 50.7189H17.8867L7.82349 21.9482H15.241L21.5718 40.0894L27.9027 21.9482H35.3674Z" fill="white"/>
<path d="M37.5406 21.9482H44.9581V50.7189H37.5406V21.9482Z" fill="white"/>
<path d="M48.3601 45.4757L53.0847 41.2712C53.0847 41.2712 56.628 44.7671 61.4943 44.7671C64.329 44.7671 66.1244 43.8695 66.1244 42.405C66.1244 39.3343 48.7381 39.7594 48.7381 30.2165C48.7381 25.1143 52.8484 21.4766 60.4549 21.4766C68.7228 21.4766 73.4473 27.1929 73.4473 27.1929L68.7228 31.3975C68.7228 31.3975 65.1322 27.9016 60.2187 27.9016C57.4312 27.9016 55.5887 28.8464 55.5887 30.2637C55.5887 33.3344 73.0222 32.9092 73.0222 42.4522C73.0222 47.5544 68.8173 51.1921 61.2109 51.1921C53.1319 51.1921 48.3601 45.4757 48.3601 45.4757Z" fill="white"/>
<path d="M107.558 36.3104C107.558 44.4833 100.896 51.1446 92.5808 51.1446C89.5575 51.1446 86.7699 50.2941 84.455 48.7352V50.6721H77.0375V7.82324H84.455V23.8856C86.7699 22.3267 89.5575 21.4763 92.5808 21.4763C100.896 21.4763 107.558 28.1375 107.558 36.3104ZM99.9044 36.3104C99.9044 31.7279 96.6919 28.3737 92.3452 28.3737C87.9511 28.3737 84.7857 31.7279 84.7857 36.3104C84.7857 40.8929 87.9038 44.2472 92.3452 44.2472C96.6919 44.2472 99.9044 40.9402 99.9044 36.3104Z" fill="white"/>
<path d="M110.818 7.82324H118.236V50.7194H110.818V7.82324Z" fill="white"/>
<path d="M124.428 28.997C125.953 28.997 127.19 27.7605 127.19 26.2353C127.19 24.7101 125.953 23.4736 124.428 23.4736C122.903 23.4736 121.666 24.7101 121.666 26.2353C121.666 27.7605 122.903 28.997 124.428 28.997Z" stroke="white" stroke-width="0.490965"/>
<path d="M123.66 27.3091V26.4499M123.66 26.4499V25.1611H124.537C124.756 25.1611 125.195 25.1611 125.195 25.8055C125.195 26.4499 124.756 26.4499 124.537 26.4499M123.66 26.4499C123.806 26.4499 124.187 26.4499 124.537 26.4499M124.537 26.4499L125.195 27.3091" stroke="white" stroke-width="0.490965" stroke-linecap="round" stroke-linejoin="round"/>
</g>
<defs>
<clipPath id="clip0_437_552">
<rect width="120.286" height="44.9851" fill="white" transform="translate(7.82349 7.82324)"/>
</clipPath>
</defs>
</svg>
