<svg width="25" height="25" viewBox="0 0 25 25" fill="none" xmlns="http://www.w3.org/2000/svg">
<circle cx="12.5" cy="12.5" r="12" fill="#002BC6" stroke="#7996FF"/>
<path fill-rule="evenodd" clip-rule="evenodd" d="M17.7081 9.4423C17.5837 8.89665 17.2152 8.46621 16.7467 8.31838C15.8994 8.05371 12.5 8.05371 12.5 8.05371C12.5 8.05371 9.10214 8.05371 8.25323 8.31838C7.78638 8.46404 7.4179 8.89447 7.29182 9.4423C7.06519 10.4325 7.06519 12.5005 7.06519 12.5005C7.06519 12.5005 7.06519 14.5684 7.29182 15.5586C7.41627 16.1043 7.78475 16.5347 8.25323 16.6825C9.10214 16.9472 12.5 16.9472 12.5 16.9472C12.5 16.9472 15.8994 16.9472 16.7467 16.6825C17.2136 16.5369 17.582 16.1064 17.7081 15.5586C17.9348 14.5684 17.9348 12.5005 17.9348 12.5005C17.9348 12.5005 17.9348 10.4325 17.7081 9.4423Z" stroke="#7996FF" stroke-width="0.815217" stroke-linecap="round" stroke-linejoin="round"/>
<path fill-rule="evenodd" clip-rule="evenodd" d="M11.4141 14.131L14.238 12.5006L11.4141 10.8701V14.131Z" stroke="#7996FF" stroke-width="0.815217" stroke-linecap="round" stroke-linejoin="round"/>
</svg>
